<?xml version="1.0" encoding="UTF-8"?>
<svg width="980px" height="605px" viewBox="0 0 980 605" version="1.1" xmlns="http://www.w3.org/2000/svg" xmlns:xlink="http://www.w3.org/1999/xlink">
    <!-- Generator: Sketch 49 (51002) - http://www.bohemiancoding.com/sketch -->
    <title>banner</title>
    <desc>Created with Sketch.</desc>
    <defs></defs>
    <g id="Page-1" stroke="none" stroke-width="1" fill="none" fill-rule="evenodd">
        <g id="github-banner" transform="translate(-20.000000, -209.000000)">
            <g id="Group-2" transform="translate(383.000000, 365.000000)">
                <path d="M127.5,4.03991332 L3.5,75.5222663 L3.5,218.477734 L127.5,289.960087 L251.5,218.477734 L251.5,75.5222663 L127.5,4.03991332 Z" id="Polygon" stroke="#343334" stroke-width="7"></path>
                <path d="M80.3636364,136.976667 L91.3490909,136.976667 L93.8363636,144.313333 L109.070909,144.313333 L111.661818,136.976667 L152.909091,136.976667 L152.909091,145.76 L132.285455,145.76 L151.250909,170.87 L151.250909,177.69 L122.129091,177.69 L122.129091,168.906667 L139.54,168.906667 L120.16,143.796667 L120.16,142.866667 L105.961818,177.69 L96.5309091,177.69 L80.3636364,136.976667 Z M96.5309091,152.476667 L101.194545,166.22 L106.169091,152.476667 L96.5309091,152.476667 Z M184,85 L95.9090909,85 C82.9545455,85 70,90.1666667 70,105.666667 L70,193.5 C70,209 70,209 85.5454545,209 L163.272727,209 L163.272727,105.666667 L80.3636364,105.666667 C80.3636364,97.9166667 85.5454545,95.3333333 90.7272727,95.3333333 L173.636364,95.3333333 L173.636364,198.666667 L184,188.333333 L184,85 Z" id="Shape" fill="#343334" fill-rule="nonzero" transform="translate(127.000000, 147.000000) scale(-1, 1) rotate(-180.000000) translate(-127.000000, -147.000000) "></path>
            </g>
        </g>
    </g>
</svg>