<?xml version="1.0" encoding="UTF-8"?>
<svg width="980px" height="400px" viewBox="0 0 980 400" version="1.1" xmlns="http://www.w3.org/2000/svg" xmlns:xlink="http://www.w3.org/1999/xlink">
    <!-- Generator: Sketch 48 (47235) - http://www.bohemiancoding.com/sketch -->
    <title>banner</title>
    <desc>Created with Sketch.</desc>
    <defs></defs>
    <g id="github-banner" stroke="none" stroke-width="1" fill="none" fill-rule="evenodd" transform="translate(-16.000000, -21.000000)">
        <path d="M506.299363,78.0414519 L382.5,149.517047 L382.5,292.468239 L506.299363,363.943834 L630.098726,292.468239 L630.098726,149.517047 L506.299363,78.0414519 Z" id="Polygon" stroke="#343334" stroke-width="7"></path>
        <path d="M459.19697,210.947273 L470.182424,210.947273 L472.669697,218.305455 L487.904242,218.305455 L490.495152,210.947273 L531.742424,210.947273 L531.742424,219.756364 L511.118788,219.756364 L530.084242,244.94 L530.084242,251.78 L500.962424,251.78 L500.962424,242.970909 L518.373333,242.970909 L498.993333,217.787273 L498.993333,216.854545 L484.795152,251.78 L475.364242,251.78 L459.19697,210.947273 Z M475.364242,226.492727 L480.027879,240.276364 L485.002424,226.492727 L475.364242,226.492727 Z M562.833333,158.818182 L474.742424,158.818182 C461.787879,158.818182 448.833333,164 448.833333,179.545455 L448.833333,267.636364 C448.833333,283.181818 448.833333,283.181818 464.378788,283.181818 L542.106061,283.181818 L542.106061,179.545455 L459.19697,179.545455 C459.19697,171.772727 464.378788,169.181818 469.560606,169.181818 L552.469697,169.181818 L552.469697,272.818182 L562.833333,262.454545 L562.833333,158.818182 Z" id="Shape" fill="#343334" fill-rule="nonzero" transform="translate(505.833333, 221.000000) scale(-1, 1) rotate(-180.000000) translate(-505.833333, -221.000000) "></path>
    </g>
</svg>